<svg width="203" height="56" viewBox="0 0 203 56" fill="none" xmlns="http://www.w3.org/2000/svg">
<g clip-path="url(#clip0)">
<rect width="203" height="56" fill="white"/>
<path d="M32.216 47.52C31.0373 44.6427 29.8587 41.7827 28.68 38.94C27.536 36.0973 26.3747 33.2547 25.196 30.412C24.9187 29.7533 24.5547 28.8347 24.104 27.656C23.688 26.4427 23.2373 25.056 22.752 23.496C22.3013 21.936 21.8853 20.324 21.504 18.66C21.5733 20.6013 21.6253 22.4387 21.66 24.172C21.6947 25.8707 21.6947 27.5 21.66 29.06C21.66 30.62 21.6427 32.1973 21.608 33.792C21.608 35.352 21.608 36.912 21.608 38.472C21.608 39.408 21.5733 40.3093 21.504 41.176C21.4693 42.0427 21.4173 42.7013 21.348 43.152C21.9373 43.0827 22.648 43.048 23.48 43.048C24.3467 43.0133 24.9533 42.996 25.3 42.996V47H13.444V43.568C14.2413 43.5333 14.9 43.4293 15.42 43.256C15.9747 43.0827 16.3907 42.684 16.668 42.06C16.98 41.436 17.136 40.4307 17.136 39.044L17.448 19.128C17.4827 18.192 17.5173 17.2907 17.552 16.424C17.5867 15.5573 17.6213 14.8987 17.656 14.448C17.1013 14.4827 16.408 14.5173 15.576 14.552C14.744 14.552 14.1373 14.5693 13.756 14.604V10.6H25.248L33.1 30.724C33.412 31.5213 33.7587 32.4573 34.14 33.532C34.5213 34.572 34.8853 35.5947 35.232 36.6C35.5787 37.5707 35.8387 38.3507 36.012 38.94H36.064C36.5147 37.7267 36.9307 36.548 37.312 35.404C37.6933 34.26 38.092 33.1507 38.508 32.076C39.86 28.4707 41.1947 24.8827 42.512 21.312C43.864 17.7413 45.216 14.1707 46.568 10.6H58.58V14.032C57.8173 14.0667 57.1413 14.1707 56.552 14.344C55.9627 14.5173 55.512 14.916 55.2 15.54C54.9227 16.1293 54.8013 17.1347 54.836 18.556L55.616 38.472C55.6853 39.408 55.6853 40.3093 55.616 41.176C55.5467 42.0427 55.4773 42.7013 55.408 43.152C55.9973 43.0827 56.708 43.048 57.54 43.048C58.4067 43.0133 59.0133 42.996 59.36 42.996V47H44.904V43.568C45.7013 43.5333 46.3773 43.4293 46.932 43.256C47.5213 43.0827 47.9547 42.684 48.232 42.06C48.544 41.436 48.6653 40.4307 48.596 39.044L48.18 28.02C48.18 27.604 48.1453 26.8933 48.076 25.888C48.0067 24.848 47.9373 23.7213 47.868 22.508C47.8333 21.26 47.7987 20.0987 47.764 19.024C47.66 19.2667 47.556 19.5093 47.452 19.752C47.348 19.96 47.2613 20.1853 47.192 20.428L37.052 47.52H32.216Z" fill="#63811C"/>
<path d="M65.616 24.16C65.0507 24.16 64.544 24.0533 64.096 23.84C63.6587 23.616 63.312 23.3173 63.056 22.944C62.8107 22.5707 62.688 22.1493 62.688 21.68C62.688 21.104 62.8373 20.6507 63.136 20.32C63.4347 19.9787 63.92 19.7333 64.592 19.584C65.264 19.4347 66.1653 19.36 67.296 19.36H67.856V19.024C67.856 18.4907 67.7387 18.1067 67.504 17.872C67.2693 17.6373 66.8747 17.52 66.32 17.52C65.8827 17.52 65.4347 17.5893 64.976 17.728C64.5173 17.856 64.0533 18.0587 63.584 18.336L63.008 16.976C63.2853 16.784 63.6107 16.6187 63.984 16.48C64.368 16.3307 64.768 16.2187 65.184 16.144C65.6107 16.0587 66.0107 16.016 66.384 16.016C67.5253 16.016 68.3733 16.2827 68.928 16.816C69.4827 17.3387 69.76 18.1547 69.76 19.264V24H67.888V22.752C67.7067 23.1893 67.4187 23.536 67.024 23.792C66.6293 24.0373 66.16 24.16 65.616 24.16ZM66.032 22.784C66.5547 22.784 66.9867 22.6027 67.328 22.24C67.68 21.8773 67.856 21.4187 67.856 20.864V20.512H67.312C66.3093 20.512 65.6107 20.592 65.216 20.752C64.832 20.9013 64.64 21.1787 64.64 21.584C64.64 21.936 64.7627 22.224 65.008 22.448C65.2533 22.672 65.5947 22.784 66.032 22.784ZM71.79 24V16.176H73.742V17.552C74.126 16.624 74.9473 16.112 76.206 16.016L76.814 15.968L76.942 17.664L75.79 17.776C74.478 17.904 73.822 18.576 73.822 19.792V24H71.79ZM78.0556 24V16.176H80.0076V17.552C80.3916 16.624 81.213 16.112 82.4716 16.016L83.0796 15.968L83.2076 17.664L82.0556 17.776C80.7436 17.904 80.0876 18.576 80.0876 19.792V24H78.0556ZM84.1933 14.496V12.544H86.4333V14.496H84.1933ZM84.3213 24V16.176H86.3213V24H84.3213ZM90.9754 24.16C90.41 24.16 89.9034 24.0533 89.4554 23.84C89.018 23.616 88.6714 23.3173 88.4154 22.944C88.17 22.5707 88.0474 22.1493 88.0474 21.68C88.0474 21.104 88.1967 20.6507 88.4954 20.32C88.794 19.9787 89.2794 19.7333 89.9514 19.584C90.6234 19.4347 91.5247 19.36 92.6554 19.36H93.2154V19.024C93.2154 18.4907 93.098 18.1067 92.8634 17.872C92.6287 17.6373 92.234 17.52 91.6794 17.52C91.242 17.52 90.794 17.5893 90.3354 17.728C89.8767 17.856 89.4127 18.0587 88.9434 18.336L88.3674 16.976C88.6447 16.784 88.97 16.6187 89.3434 16.48C89.7274 16.3307 90.1274 16.2187 90.5434 16.144C90.97 16.0587 91.37 16.016 91.7434 16.016C92.8847 16.016 93.7327 16.2827 94.2874 16.816C94.842 17.3387 95.1194 18.1547 95.1194 19.264V24H93.2474V22.752C93.066 23.1893 92.778 23.536 92.3834 23.792C91.9887 24.0373 91.5194 24.16 90.9754 24.16ZM91.3914 22.784C91.914 22.784 92.346 22.6027 92.6874 22.24C93.0394 21.8773 93.2154 21.4187 93.2154 20.864V20.512H92.6714C91.6687 20.512 90.97 20.592 90.5754 20.752C90.1914 20.9013 89.9994 21.1787 89.9994 21.584C89.9994 21.936 90.122 22.224 90.3674 22.448C90.6127 22.672 90.954 22.784 91.3914 22.784ZM100.797 27.04C100.072 27.04 99.3894 26.9547 98.7494 26.784C98.12 26.624 97.5654 26.3733 97.0854 26.032L97.6614 24.64C98.1094 24.9387 98.5894 25.1573 99.1014 25.296C99.6134 25.4453 100.125 25.52 100.637 25.52C102.067 25.52 102.781 24.832 102.781 23.456V22.384C102.557 22.8213 102.211 23.168 101.741 23.424C101.283 23.68 100.771 23.808 100.205 23.808C99.5014 23.808 98.888 23.648 98.3654 23.328C97.8427 22.9973 97.4374 22.5387 97.1494 21.952C96.8614 21.3653 96.7174 20.6827 96.7174 19.904C96.7174 19.1253 96.8614 18.448 97.1494 17.872C97.4374 17.2853 97.8427 16.832 98.3654 16.512C98.888 16.1813 99.5014 16.016 100.205 16.016C100.792 16.016 101.315 16.1493 101.773 16.416C102.232 16.672 102.568 17.0187 102.781 17.456V16.176H104.733V23.216C104.733 24.4853 104.397 25.44 103.725 26.08C103.053 26.72 102.077 27.04 100.797 27.04ZM100.749 22.288C101.368 22.288 101.859 22.0747 102.221 21.648C102.584 21.2213 102.765 20.64 102.765 19.904C102.765 19.168 102.584 18.592 102.221 18.176C101.859 17.7493 101.368 17.536 100.749 17.536C100.131 17.536 99.64 17.7493 99.2774 18.176C98.9147 18.592 98.7334 19.168 98.7334 19.904C98.7334 20.64 98.9147 21.2213 99.2774 21.648C99.64 22.0747 100.131 22.288 100.749 22.288ZM110.662 24.16C109.776 24.16 109.014 23.9947 108.374 23.664C107.734 23.3333 107.238 22.864 106.886 22.256C106.544 21.648 106.374 20.928 106.374 20.096C106.374 19.2853 106.539 18.576 106.87 17.968C107.211 17.36 107.675 16.8853 108.262 16.544C108.859 16.192 109.536 16.016 110.294 16.016C111.403 16.016 112.278 16.368 112.918 17.072C113.568 17.776 113.894 18.736 113.894 19.952V20.544H108.294C108.443 21.9413 109.243 22.64 110.694 22.64C111.131 22.64 111.568 22.576 112.006 22.448C112.443 22.3093 112.843 22.096 113.206 21.808L113.766 23.152C113.392 23.4613 112.923 23.7067 112.358 23.888C111.792 24.0693 111.227 24.16 110.662 24.16ZM110.374 17.376C109.787 17.376 109.312 17.5573 108.95 17.92C108.587 18.2827 108.368 18.7733 108.294 19.392H112.23C112.187 18.7413 112.006 18.2453 111.686 17.904C111.376 17.552 110.939 17.376 110.374 17.376ZM119.982 24V12.72H122.03V24H119.982ZM124.29 24V16.176H126.242V17.392C126.509 16.944 126.866 16.6027 127.314 16.368C127.773 16.1333 128.285 16.016 128.85 16.016C130.695 16.016 131.618 17.088 131.618 19.232V24H129.618V19.328C129.618 18.72 129.501 18.2773 129.266 18C129.042 17.7227 128.69 17.584 128.21 17.584C127.623 17.584 127.154 17.7707 126.802 18.144C126.461 18.5067 126.29 18.992 126.29 19.6V24H124.29ZM143.402 24.16C142.229 24.16 141.221 23.9253 140.378 23.456C139.546 22.976 138.906 22.304 138.458 21.44C138.01 20.5653 137.786 19.536 137.786 18.352C137.786 17.168 138.01 16.144 138.458 15.28C138.906 14.416 139.546 13.7493 140.378 13.28C141.221 12.8 142.229 12.56 143.402 12.56C144.159 12.56 144.874 12.6773 145.546 12.912C146.229 13.1467 146.789 13.4827 147.226 13.92L146.554 15.552C146.074 15.1467 145.583 14.8533 145.082 14.672C144.581 14.48 144.042 14.384 143.466 14.384C142.325 14.384 141.455 14.7307 140.858 15.424C140.261 16.1067 139.962 17.0827 139.962 18.352C139.962 19.6213 140.261 20.6027 140.858 21.296C141.455 21.9893 142.325 22.336 143.466 22.336C144.042 22.336 144.581 22.2453 145.082 22.064C145.583 21.872 146.074 21.5733 146.554 21.168L147.226 22.8C146.789 23.2267 146.229 23.5627 145.546 23.808C144.874 24.0427 144.159 24.16 143.402 24.16ZM148.821 24V12.72H150.821V17.312C151.088 16.8853 151.445 16.5653 151.893 16.352C152.341 16.128 152.837 16.016 153.381 16.016C155.227 16.016 156.149 17.088 156.149 19.232V24H154.149V19.328C154.149 18.72 154.032 18.2773 153.797 18C153.573 17.7227 153.221 17.584 152.741 17.584C152.155 17.584 151.685 17.7707 151.333 18.144C150.992 18.5067 150.821 18.992 150.821 19.6V24H148.821ZM158.181 24V16.176H160.133V17.552C160.517 16.624 161.338 16.112 162.597 16.016L163.205 15.968L163.333 17.664L162.181 17.776C160.869 17.904 160.213 18.576 160.213 19.792V24H158.181ZM164.318 14.496V12.544H166.558V14.496H164.318ZM164.446 24V16.176H166.446V24H164.446ZM171.388 24.16C170.727 24.16 170.108 24.08 169.532 23.92C168.956 23.76 168.476 23.5307 168.092 23.232L168.604 21.92C168.999 22.1867 169.442 22.3947 169.932 22.544C170.423 22.6827 170.914 22.752 171.404 22.752C171.916 22.752 172.295 22.6667 172.54 22.496C172.796 22.3147 172.924 22.08 172.924 21.792C172.924 21.344 172.594 21.056 171.932 20.928L170.332 20.624C168.978 20.368 168.3 19.664 168.3 18.512C168.3 18 168.439 17.5573 168.716 17.184C169.004 16.8107 169.399 16.5227 169.9 16.32C170.402 16.1173 170.978 16.016 171.628 16.016C172.183 16.016 172.716 16.096 173.228 16.256C173.74 16.4053 174.178 16.6347 174.54 16.944L173.996 18.256C173.687 18 173.314 17.7973 172.876 17.648C172.45 17.4987 172.039 17.424 171.644 17.424C171.122 17.424 170.732 17.5147 170.476 17.696C170.231 17.8773 170.108 18.1173 170.108 18.416C170.108 18.8853 170.412 19.1733 171.02 19.28L172.62 19.584C173.314 19.712 173.836 19.9467 174.188 20.288C174.551 20.6293 174.732 21.088 174.732 21.664C174.732 22.4427 174.428 23.056 173.82 23.504C173.212 23.9413 172.402 24.16 171.388 24.16ZM179.843 24.16C177.773 24.16 176.739 23.136 176.739 21.088V17.68H175.235V16.176H176.739V13.84H178.739V16.176H181.107V17.68H178.739V20.976C178.739 21.488 178.851 21.872 179.075 22.128C179.299 22.384 179.661 22.512 180.163 22.512C180.312 22.512 180.467 22.496 180.627 22.464C180.787 22.4213 180.952 22.3787 181.123 22.336L181.427 23.808C181.235 23.9147 180.989 24 180.691 24.064C180.403 24.128 180.12 24.16 179.843 24.16Z" fill="black"/>
<path d="M62.912 32.496V30.544H65.152V32.496H62.912ZM63.04 42V34.176H65.04V42H63.04ZM67.1181 42V34.176H69.0701V35.392C69.3368 34.944 69.6941 34.6027 70.1421 34.368C70.6008 34.1333 71.1128 34.016 71.6781 34.016C73.5235 34.016 74.4461 35.088 74.4461 37.232V42H72.4461V37.328C72.4461 36.72 72.3288 36.2773 72.0941 36C71.8701 35.7227 71.5181 35.584 71.0381 35.584C70.4515 35.584 69.9821 35.7707 69.6301 36.144C69.2888 36.5067 69.1181 36.992 69.1181 37.6V42H67.1181ZM76.3495 32.496V30.544H78.5895V32.496H76.3495ZM76.4775 42V34.176H78.4775V42H76.4775ZM83.4196 42.16C82.7583 42.16 82.1396 42.08 81.5636 41.92C80.9876 41.76 80.5076 41.5307 80.1236 41.232L80.6356 39.92C81.0303 40.1867 81.473 40.3947 81.9636 40.544C82.4543 40.6827 82.945 40.752 83.4356 40.752C83.9476 40.752 84.3263 40.6667 84.5716 40.496C84.8276 40.3147 84.9556 40.08 84.9556 39.792C84.9556 39.344 84.625 39.056 83.9636 38.928L82.3636 38.624C81.009 38.368 80.3316 37.664 80.3316 36.512C80.3316 36 80.4703 35.5573 80.7476 35.184C81.0356 34.8107 81.4303 34.5227 81.9316 34.32C82.433 34.1173 83.009 34.016 83.6596 34.016C84.2143 34.016 84.7476 34.096 85.2596 34.256C85.7716 34.4053 86.209 34.6347 86.5716 34.944L86.0276 36.256C85.7183 36 85.345 35.7973 84.9076 35.648C84.481 35.4987 84.0703 35.424 83.6756 35.424C83.153 35.424 82.7636 35.5147 82.5076 35.696C82.2623 35.8773 82.1396 36.1173 82.1396 36.416C82.1396 36.8853 82.4436 37.1733 83.0516 37.28L84.6516 37.584C85.345 37.712 85.8676 37.9467 86.2196 38.288C86.5823 38.6293 86.7636 39.088 86.7636 39.664C86.7636 40.4427 86.4596 41.056 85.8516 41.504C85.2436 41.9413 84.433 42.16 83.4196 42.16ZM91.874 42.16C89.8047 42.16 88.77 41.136 88.77 39.088V35.68H87.266V34.176H88.77V31.84H90.77V34.176H93.138V35.68H90.77V38.976C90.77 39.488 90.882 39.872 91.106 40.128C91.33 40.384 91.6927 40.512 92.194 40.512C92.3433 40.512 92.498 40.496 92.658 40.464C92.818 40.4213 92.9833 40.3787 93.154 40.336L93.458 41.808C93.266 41.9147 93.0207 42 92.722 42.064C92.434 42.128 92.1513 42.16 91.874 42.16ZM94.4306 42V34.176H96.3826V35.552C96.7666 34.624 97.588 34.112 98.8466 34.016L99.4546 33.968L99.5826 35.664L98.4306 35.776C97.1186 35.904 96.4626 36.576 96.4626 37.792V42H94.4306ZM101.885 44.88L103.325 41.68L100.077 34.176H102.205L104.397 39.648L106.637 34.176H108.653L103.949 44.88H101.885Z" fill="black"/>
</g>
<defs>
<clipPath id="clip0">
<rect width="203" height="56" fill="white"/>
</clipPath>
</defs>
</svg>
